<svg width="16" height="16" viewBox="0 0 16 16" fill="none" xmlns="http://www.w3.org/2000/svg">
<path d="M4 1.33594L2 4.0026V13.3359C2 13.6896 2.14048 14.0287 2.39052 14.2787C2.64057 14.5288 2.97971 14.6693 3.33333 14.6693H12.6667C13.0203 14.6693 13.3594 14.5288 13.6095 14.2787C13.8595 14.0287 14 13.6896 14 13.3359V4.0026L12 1.33594H4Z" stroke="#F9FAFB" stroke-width="1.33333" stroke-linecap="round" stroke-linejoin="round"/>
<path d="M2 4H14" stroke="#F9FAFB" stroke-width="1.33333" stroke-linecap="round" stroke-linejoin="round"/>
<path d="M10.6668 6.66406C10.6668 7.37131 10.3859 8.04958 9.88578 8.54968C9.38568 9.04978 8.70741 9.33073 8.00016 9.33073C7.29292 9.33073 6.61464 9.04978 6.11454 8.54968C5.61445 8.04958 5.3335 7.37131 5.3335 6.66406" stroke="#F9FAFB" stroke-width="1.33333" stroke-linecap="round" stroke-linejoin="round"/>
</svg>
