<svg width="16" height="16" viewBox="0 0 16 16" fill="none" xmlns="http://www.w3.org/2000/svg">
<g clip-path="url(#clip0_4527_507)">
<path d="M7.68334 1.53253C7.71255 1.47351 7.75769 1.42382 7.81364 1.38908C7.86959 1.35435 7.93414 1.33594 8 1.33594C8.06587 1.33594 8.13042 1.35435 8.18637 1.38908C8.24232 1.42382 8.28746 1.47351 8.31667 1.53253L9.85667 4.65187C9.95812 4.85718 10.1079 5.03481 10.2931 5.1695C10.4783 5.3042 10.6934 5.39194 10.92 5.4252L14.364 5.9292C14.4293 5.93866 14.4906 5.96618 14.541 6.00867C14.5914 6.05115 14.629 6.1069 14.6494 6.1696C14.6697 6.23231 14.6722 6.29947 14.6564 6.36349C14.6406 6.42751 14.6072 6.48583 14.56 6.53187L12.0693 8.9572C11.9051 9.11727 11.7822 9.31485 11.7112 9.53295C11.6403 9.75105 11.6234 9.98313 11.662 10.2092L12.25 13.6359C12.2615 13.7011 12.2545 13.7682 12.2297 13.8297C12.2049 13.8911 12.1633 13.9443 12.1097 13.9832C12.0561 14.0221 11.9927 14.0452 11.9266 14.0498C11.8605 14.0544 11.7945 14.0403 11.736 14.0092L8.65734 12.3905C8.45448 12.284 8.22879 12.2284 7.99967 12.2284C7.77055 12.2284 7.54486 12.284 7.342 12.3905L4.264 14.0092C4.20556 14.0401 4.1396 14.0541 4.07364 14.0494C4.00767 14.0447 3.94435 14.0216 3.89087 13.9827C3.83739 13.9438 3.79589 13.8907 3.77111 13.8293C3.74632 13.768 3.73924 13.701 3.75067 13.6359L4.338 10.2099C4.3768 9.98369 4.35999 9.75147 4.28903 9.53323C4.21807 9.315 4.09508 9.1173 3.93067 8.9572L1.44 6.53253C1.3924 6.48656 1.35867 6.42813 1.34265 6.36392C1.32663 6.2997 1.32896 6.23228 1.34939 6.16933C1.36982 6.10638 1.40752 6.05043 1.45819 6.00786C1.50886 5.96528 1.57047 5.9378 1.636 5.92853L5.07934 5.4252C5.30618 5.3922 5.5216 5.30457 5.70706 5.16986C5.89252 5.03514 6.04247 4.85738 6.144 4.65187L7.68334 1.53253Z" stroke="#030711" stroke-width="1.33333" stroke-linecap="round" stroke-linejoin="round"/>
</g>
<defs>
<clipPath id="clip0_4527_507">
<rect width="16" height="16" fill="white"/>
</clipPath>
</defs>
</svg>
