<svg width="20" height="20" viewBox="0 0 20 20" fill="none" xmlns="http://www.w3.org/2000/svg">
<path d="M5 6.66406C5 5.33798 5.52678 4.06621 6.46447 3.12853C7.40215 2.19085 8.67392 1.66406 10 1.66406C11.3261 1.66406 12.5979 2.19085 13.5355 3.12853C14.4732 4.06621 15 5.33798 15 6.66406C15 12.4974 17.5 14.1641 17.5 14.1641H2.5C2.5 14.1641 5 12.4974 5 6.66406Z" stroke="#030711" stroke-width="1.66667" stroke-linecap="round" stroke-linejoin="round"/>
<path d="M8.58337 17.5C8.72286 17.7537 8.92791 17.9653 9.17712 18.1127C9.42632 18.26 9.71052 18.3378 10 18.3378C10.2896 18.3378 10.5738 18.26 10.823 18.1127C11.0722 17.9653 11.2772 17.7537 11.4167 17.5" stroke="#030711" stroke-width="1.66667" stroke-linecap="round" stroke-linejoin="round"/>
</svg>
