<svg width="32" height="32" viewBox="0 0 32 32" fill="none" xmlns="http://www.w3.org/2000/svg">
<path d="M14.6667 28.9758C15.0721 29.2099 15.5319 29.3331 16 29.3331C16.4681 29.3331 16.9279 29.2099 17.3333 28.9758L26.6667 23.6425C27.0717 23.4087 27.408 23.0725 27.6421 22.6676C27.8761 22.2627 27.9995 21.8034 28 21.3358V10.6691C27.9995 10.2015 27.8761 9.74222 27.6421 9.33736C27.408 8.93249 27.0717 8.59629 26.6667 8.36247L17.3333 3.02914C16.9279 2.79509 16.4681 2.67188 16 2.67188C15.5319 2.67188 15.0721 2.79509 14.6667 3.02914L5.33333 8.36247C4.92835 8.59629 4.59197 8.93249 4.35795 9.33736C4.12392 9.74222 4.00048 10.2015 4 10.6691V21.3358C4.00048 21.8034 4.12392 22.2627 4.35795 22.6676C4.59197 23.0725 4.92835 23.4087 5.33333 23.6425L14.6667 28.9758Z" stroke="#030711" stroke-width="2.66667" stroke-linecap="round" stroke-linejoin="round"/>
<path d="M16 29.3333V16" stroke="#030711" stroke-width="2.66667" stroke-linecap="round" stroke-linejoin="round"/>
<path d="M4.40002 9.33594L14.6707 15.6479C15.0751 15.8805 15.5335 16.0029 16 16.0029C16.4666 16.0029 16.9249 15.8805 17.3294 15.6479L27.6 9.33594" stroke="#030711" stroke-width="2.66667" stroke-linecap="round" stroke-linejoin="round"/>
<path d="M10 5.69531L22 12.562" stroke="#030711" stroke-width="2.66667" stroke-linecap="round" stroke-linejoin="round"/>
</svg>
