<svg width="16" height="16" viewBox="0 0 16 16" fill="none" xmlns="http://www.w3.org/2000/svg">
<path d="M12.6667 7.33594H3.33333C2.59695 7.33594 2 7.93289 2 8.66927V13.3359C2 14.0723 2.59695 14.6693 3.33333 14.6693H12.6667C13.403 14.6693 14 14.0723 14 13.3359V8.66927C14 7.93289 13.403 7.33594 12.6667 7.33594Z" stroke="#6B7280" stroke-width="1.33333" stroke-linecap="round" stroke-linejoin="round"/>
<path d="M4.6665 7.33594V4.66927C4.6665 3.78522 5.01769 2.93737 5.64281 2.31225C6.26794 1.68713 7.11578 1.33594 7.99984 1.33594C8.88389 1.33594 9.73174 1.68713 10.3569 2.31225C10.982 2.93737 11.3332 3.78522 11.3332 4.66927V7.33594" stroke="#6B7280" stroke-width="1.33333" stroke-linecap="round" stroke-linejoin="round"/>
</svg>
