<svg width="16" height="16" viewBox="0 0 16 16" fill="none" xmlns="http://www.w3.org/2000/svg">
<g clip-path="url(#clip0_4163_2982)">
<path d="M14.116 4.54419C14.4685 4.19181 14.6665 3.71384 14.6666 3.21543C14.6666 2.71702 14.4687 2.239 14.1163 1.88652C13.7639 1.53405 13.286 1.336 12.7876 1.33594C12.2892 1.33587 11.8111 1.53381 11.4587 1.88619L2.56133 10.7855C2.40654 10.9399 2.29207 11.1299 2.228 11.3389L1.34733 14.2402C1.3301 14.2978 1.3288 14.3591 1.34356 14.4174C1.35833 14.4758 1.38861 14.529 1.43119 14.5715C1.47378 14.614 1.52708 14.6442 1.58544 14.6589C1.64379 14.6736 1.70504 14.6722 1.76266 14.6549L4.66466 13.7749C4.87344 13.7114 5.06345 13.5976 5.218 13.4435L14.116 4.54419Z" stroke="#030711" stroke-width="1.33333" stroke-linecap="round" stroke-linejoin="round"/>
</g>
<defs>
<clipPath id="clip0_4163_2982">
<rect width="16" height="16" fill="white"/>
</clipPath>
</defs>
</svg>
