<svg width="20" height="20" viewBox="0 0 20 20" fill="none" xmlns="http://www.w3.org/2000/svg">
<path d="M16.6666 10.8311C16.6666 14.9978 13.7499 17.0811 10.2833 18.2894C10.1017 18.351 9.90453 18.348 9.72492 18.2811C6.24992 17.0811 3.33325 14.9978 3.33325 10.8311V4.99777C3.33325 4.77676 3.42105 4.5648 3.57733 4.40851C3.73361 4.25223 3.94557 4.16444 4.16659 4.16444C5.83325 4.16444 7.91658 3.16444 9.36658 1.89777C9.54313 1.74694 9.76771 1.66406 9.99992 1.66406C10.2321 1.66406 10.4567 1.74694 10.6333 1.89777C12.0916 3.17277 14.1666 4.16444 15.8333 4.16444C16.0543 4.16444 16.2662 4.25223 16.4225 4.40851C16.5788 4.5648 16.6666 4.77676 16.6666 4.99777V10.8311Z" stroke="#030711" stroke-width="1.66667" stroke-linecap="round" stroke-linejoin="round"/>
</svg>
