<svg width="16" height="16" viewBox="0 0 16 16" fill="none" xmlns="http://www.w3.org/2000/svg">
<path d="M12 5.33594C13.1046 5.33594 14 4.44051 14 3.33594C14 2.23137 13.1046 1.33594 12 1.33594C10.8954 1.33594 10 2.23137 10 3.33594C10 4.44051 10.8954 5.33594 12 5.33594Z" stroke="#030711" stroke-width="1.33333" stroke-linecap="round" stroke-linejoin="round"/>
<path d="M4 10C5.10457 10 6 9.10457 6 8C6 6.89543 5.10457 6 4 6C2.89543 6 2 6.89543 2 8C2 9.10457 2.89543 10 4 10Z" stroke="#030711" stroke-width="1.33333" stroke-linecap="round" stroke-linejoin="round"/>
<path d="M12 14.6641C13.1046 14.6641 14 13.7686 14 12.6641C14 11.5595 13.1046 10.6641 12 10.6641C10.8954 10.6641 10 11.5595 10 12.6641C10 13.7686 10.8954 14.6641 12 14.6641Z" stroke="#030711" stroke-width="1.33333" stroke-linecap="round" stroke-linejoin="round"/>
<path d="M5.72656 9.00781L10.2799 11.6611" stroke="#030711" stroke-width="1.33333" stroke-linecap="round" stroke-linejoin="round"/>
<path d="M10.2732 4.34375L5.72656 6.99708" stroke="#030711" stroke-width="1.33333" stroke-linecap="round" stroke-linejoin="round"/>
</svg>
