<svg width="32" height="32" viewBox="0 0 32 32" fill="none" xmlns="http://www.w3.org/2000/svg">
<path d="M26.6663 17.3313C26.6663 23.998 21.9997 27.3313 16.453 29.2647C16.1626 29.3631 15.8471 29.3584 15.5597 29.2513C9.99967 27.3313 5.33301 23.998 5.33301 17.3313V7.998C5.33301 7.64437 5.47348 7.30524 5.72353 7.05519C5.97358 6.80514 6.31272 6.66466 6.66634 6.66466C9.33301 6.66466 12.6663 5.06466 14.9863 3.038C15.2688 2.79666 15.6281 2.66406 15.9997 2.66406C16.3712 2.66406 16.7305 2.79666 17.013 3.038C19.3463 5.078 22.6663 6.66466 25.333 6.66466C25.6866 6.66466 26.0258 6.80514 26.2758 7.05519C26.5259 7.30524 26.6663 7.64437 26.6663 7.998V17.3313Z" stroke="#030711" stroke-width="2.66667" stroke-linecap="round" stroke-linejoin="round"/>
</svg>
