<svg width="16" height="16" viewBox="0 0 16 16" fill="none" xmlns="http://www.w3.org/2000/svg">
<path d="M9.33331 11.9974V3.9974C9.33331 3.64377 9.19284 3.30464 8.94279 3.05459C8.69274 2.80454 8.3536 2.66406 7.99998 2.66406H2.66665C2.31302 2.66406 1.97389 2.80454 1.72384 3.05459C1.47379 3.30464 1.33331 3.64377 1.33331 3.9974V11.3307C1.33331 11.5075 1.40355 11.6771 1.52858 11.8021C1.6536 11.9272 1.82317 11.9974 1.99998 11.9974H3.33331" stroke="#2563EB" stroke-width="1.33333" stroke-linecap="round" stroke-linejoin="round"/>
<path d="M10 12H6" stroke="#2563EB" stroke-width="1.33333" stroke-linecap="round" stroke-linejoin="round"/>
<path d="M12.6666 12.0026H14C14.1768 12.0026 14.3464 11.9324 14.4714 11.8073C14.5964 11.6823 14.6666 11.5127 14.6666 11.3359V8.9026C14.6664 8.75131 14.6147 8.60461 14.52 8.4866L12.2 5.5866C12.1376 5.50852 12.0585 5.44546 11.9685 5.40207C11.8785 5.35868 11.7799 5.33608 11.68 5.33594H9.33331" stroke="#2563EB" stroke-width="1.33333" stroke-linecap="round" stroke-linejoin="round"/>
<path d="M11.3333 13.3307C12.0697 13.3307 12.6667 12.7338 12.6667 11.9974C12.6667 11.261 12.0697 10.6641 11.3333 10.6641C10.597 10.6641 10 11.261 10 11.9974C10 12.7338 10.597 13.3307 11.3333 13.3307Z" stroke="#2563EB" stroke-width="1.33333" stroke-linecap="round" stroke-linejoin="round"/>
<path d="M4.66665 13.3307C5.40303 13.3307 5.99998 12.7338 5.99998 11.9974C5.99998 11.261 5.40303 10.6641 4.66665 10.6641C3.93027 10.6641 3.33331 11.261 3.33331 11.9974C3.33331 12.7338 3.93027 13.3307 4.66665 13.3307Z" stroke="#2563EB" stroke-width="1.33333" stroke-linecap="round" stroke-linejoin="round"/>
</svg>
