<svg width="16" height="16" viewBox="0 0 16 16" fill="none" xmlns="http://www.w3.org/2000/svg">
<path d="M1.37468 8.23419C1.31912 8.08452 1.31912 7.91987 1.37468 7.77019C1.91581 6.4581 2.83435 5.33622 4.01386 4.54679C5.19336 3.75736 6.58071 3.33594 8.00001 3.33594C9.41932 3.33594 10.8067 3.75736 11.9862 4.54679C13.1657 5.33622 14.0842 6.4581 14.6253 7.77019C14.6809 7.91987 14.6809 8.08452 14.6253 8.23419C14.0842 9.54629 13.1657 10.6682 11.9862 11.4576C10.8067 12.247 9.41932 12.6684 8.00001 12.6684C6.58071 12.6684 5.19336 12.247 4.01386 11.4576C2.83435 10.6682 1.91581 9.54629 1.37468 8.23419Z" stroke="#030711" stroke-width="1.33333" stroke-linecap="round" stroke-linejoin="round"/>
<path d="M8 10C9.10457 10 10 9.10457 10 8C10 6.89543 9.10457 6 8 6C6.89543 6 6 6.89543 6 8C6 9.10457 6.89543 10 8 10Z" stroke="#030711" stroke-width="1.33333" stroke-linecap="round" stroke-linejoin="round"/>
</svg>
