<svg width="20" height="20" viewBox="0 0 20 20" fill="none" xmlns="http://www.w3.org/2000/svg">
<path d="M9.60404 1.90981C9.64056 1.83602 9.69697 1.77392 9.76692 1.73049C9.83686 1.68707 9.91755 1.66406 9.99987 1.66406C10.0822 1.66406 10.1629 1.68707 10.2328 1.73049C10.3028 1.77392 10.3592 1.83602 10.3957 1.90981L12.3207 5.80897C12.4475 6.06561 12.6347 6.28765 12.8662 6.45602C13.0977 6.62439 13.3666 6.73407 13.6499 6.77564L17.9549 7.40564C18.0364 7.41746 18.1131 7.45187 18.1761 7.50497C18.2391 7.55808 18.2861 7.62776 18.3116 7.70615C18.337 7.78453 18.3401 7.86848 18.3204 7.9485C18.3006 8.02853 18.2589 8.10143 18.1999 8.15897L15.0865 11.1906C14.8812 11.3907 14.7276 11.6377 14.6389 11.9103C14.5502 12.183 14.5291 12.473 14.5774 12.7556L15.3124 17.039C15.3268 17.1205 15.318 17.2044 15.287 17.2812C15.2559 17.358 15.204 17.4245 15.137 17.4731C15.07 17.5218 14.9907 17.5506 14.9081 17.5564C14.8255 17.5621 14.743 17.5445 14.6699 17.5056L10.8215 15.4823C10.568 15.3492 10.2859 15.2796 9.99946 15.2796C9.71306 15.2796 9.43094 15.3492 9.17737 15.4823L5.32987 17.5056C5.25681 17.5443 5.17437 17.5617 5.09191 17.5559C5.00946 17.55 4.9303 17.5211 4.86345 17.4725C4.7966 17.4239 4.74473 17.3575 4.71375 17.2808C4.68277 17.2042 4.67392 17.1204 4.68821 17.039L5.42237 12.7565C5.47087 12.4738 5.44986 12.1835 5.36115 11.9107C5.27245 11.6379 5.11871 11.3908 4.91321 11.1906L1.79987 8.15981C1.74037 8.10233 1.6982 8.0293 1.67817 7.94904C1.65815 7.86877 1.66107 7.78449 1.6866 7.7058C1.71214 7.62711 1.75926 7.55717 1.8226 7.50396C1.88594 7.45074 1.96296 7.41639 2.04487 7.40481L6.34904 6.77564C6.63259 6.73439 6.90186 6.62485 7.13369 6.45646C7.36552 6.28807 7.55296 6.06587 7.67987 5.80897L9.60404 1.90981Z" stroke="#D1D5DB" stroke-width="1.66667" stroke-linecap="round" stroke-linejoin="round"/>
</svg>
