<svg width="16" height="16" viewBox="0 0 16 16" fill="none" xmlns="http://www.w3.org/2000/svg">
<path d="M7.68323 1.53253C7.71245 1.47351 7.75758 1.42382 7.81353 1.38908C7.86949 1.35435 7.93404 1.33594 7.9999 1.33594C8.06576 1.33594 8.13031 1.35435 8.18626 1.38908C8.24222 1.42382 8.28735 1.47351 8.31656 1.53253L9.85656 4.65187C9.95802 4.85718 10.1078 5.03481 10.293 5.1695C10.4782 5.3042 10.6933 5.39194 10.9199 5.4252L14.3639 5.9292C14.4292 5.93866 14.4905 5.96618 14.5409 6.00867C14.5913 6.05115 14.6289 6.1069 14.6492 6.1696C14.6696 6.23231 14.6721 6.29947 14.6563 6.36349C14.6405 6.42751 14.6071 6.48583 14.5599 6.53187L12.0692 8.9572C11.905 9.11727 11.7821 9.31485 11.7111 9.53295C11.6402 9.75105 11.6233 9.98313 11.6619 10.2092L12.2499 13.6359C12.2614 13.7011 12.2544 13.7682 12.2296 13.8297C12.2048 13.8911 12.1632 13.9443 12.1096 13.9832C12.056 14.0221 11.9926 14.0452 11.9265 14.0498C11.8604 14.0544 11.7944 14.0403 11.7359 14.0092L8.65723 12.3905C8.45438 12.284 8.22868 12.2284 7.99956 12.2284C7.77044 12.2284 7.54475 12.284 7.3419 12.3905L4.2639 14.0092C4.20545 14.0401 4.1395 14.0541 4.07353 14.0494C4.00757 14.0447 3.94424 14.0216 3.89076 13.9827C3.83728 13.9438 3.79579 13.8907 3.771 13.8293C3.74622 13.768 3.73914 13.701 3.75056 13.6359L4.3379 10.2099C4.3767 9.98369 4.35989 9.75147 4.28892 9.53323C4.21796 9.315 4.09497 9.1173 3.93056 8.9572L1.4399 6.53253C1.39229 6.48656 1.35856 6.42813 1.34254 6.36392C1.32652 6.2997 1.32886 6.23228 1.34928 6.16933C1.36971 6.10638 1.40741 6.05043 1.45808 6.00786C1.50876 5.96528 1.57037 5.9378 1.6359 5.92853L5.07923 5.4252C5.30607 5.3922 5.52149 5.30457 5.70695 5.16986C5.89242 5.03514 6.04237 4.85738 6.1439 4.65187L7.68323 1.53253Z" fill="#FACC15" stroke="#FACC15" stroke-width="1.33333" stroke-linecap="round" stroke-linejoin="round"/>
</svg>
