<svg width="40" height="40" viewBox="0 0 40 40" fill="none" xmlns="http://www.w3.org/2000/svg">
<rect width="40" height="40" rx="12" fill="#030711"/>
<path d="M15.3516 27.4629V24.3379C15.918 24.8132 16.5332 25.1712 17.1973 25.4121C17.8613 25.6465 18.5319 25.7637 19.209 25.7637C19.6061 25.7637 19.9512 25.7279 20.2441 25.6562C20.5436 25.5846 20.791 25.487 20.9863 25.3633C21.1882 25.2331 21.3379 25.0833 21.4355 24.9141C21.5332 24.7383 21.582 24.5495 21.582 24.3477C21.582 24.0742 21.5039 23.8301 21.3477 23.6152C21.1914 23.4004 20.9766 23.2018 20.7031 23.0195C20.4362 22.8372 20.1172 22.6615 19.7461 22.4922C19.375 22.3229 18.9746 22.1504 18.5449 21.9746C17.4512 21.5189 16.6341 20.9622 16.0938 20.3047C15.5599 19.6471 15.293 18.8529 15.293 17.9219C15.293 17.1927 15.4395 16.5677 15.7324 16.0469C16.0254 15.5195 16.4225 15.0866 16.9238 14.748C17.4316 14.4095 18.0176 14.1621 18.6816 14.0059C19.3457 13.8431 20.0488 13.7617 20.791 13.7617C21.5202 13.7617 22.1647 13.8073 22.7246 13.8984C23.291 13.9831 23.8118 14.1165 24.2871 14.2988V17.2188C24.0527 17.056 23.7956 16.9128 23.5156 16.7891C23.2422 16.6654 22.959 16.5645 22.666 16.4863C22.373 16.4017 22.0801 16.3398 21.7871 16.3008C21.5007 16.2617 21.2272 16.2422 20.9668 16.2422C20.6087 16.2422 20.2832 16.278 19.9902 16.3496C19.6973 16.4147 19.4499 16.5091 19.248 16.6328C19.0462 16.7565 18.89 16.9062 18.7793 17.082C18.6686 17.2513 18.6133 17.4434 18.6133 17.6582C18.6133 17.8926 18.6751 18.1042 18.7988 18.293C18.9225 18.4753 19.0983 18.651 19.3262 18.8203C19.554 18.9831 19.8307 19.1458 20.1562 19.3086C20.4818 19.4648 20.8496 19.6276 21.2598 19.7969C21.8197 20.0312 22.321 20.2819 22.7637 20.5488C23.2129 20.8092 23.597 21.1055 23.916 21.4375C24.235 21.7695 24.4792 22.1504 24.6484 22.5801C24.8177 23.0033 24.9023 23.498 24.9023 24.0645C24.9023 24.8457 24.7526 25.5033 24.4531 26.0371C24.1602 26.5645 23.7598 26.9941 23.252 27.3262C22.7441 27.6517 22.1517 27.8861 21.4746 28.0293C20.804 28.1725 20.0944 28.2441 19.3457 28.2441C18.5775 28.2441 17.8451 28.179 17.1484 28.0488C16.4583 27.9186 15.8594 27.7233 15.3516 27.4629Z" fill="#F9FAFB"/>
</svg>
