<svg width="32" height="32" viewBox="0 0 32 32" fill="none" xmlns="http://www.w3.org/2000/svg">
<rect width="32" height="32" rx="12" fill="#030711"/>
<path d="M11.3613 22.5166V19.7041C11.8711 20.1318 12.4248 20.4541 13.0225 20.6709C13.6201 20.8818 14.2236 20.9873 14.833 20.9873C15.1904 20.9873 15.501 20.9551 15.7646 20.8906C16.0342 20.8262 16.2568 20.7383 16.4326 20.627C16.6143 20.5098 16.749 20.375 16.8369 20.2227C16.9248 20.0645 16.9688 19.8945 16.9688 19.7129C16.9688 19.4668 16.8984 19.2471 16.7578 19.0537C16.6172 18.8604 16.4238 18.6816 16.1777 18.5176C15.9375 18.3535 15.6504 18.1953 15.3164 18.043C14.9824 17.8906 14.6221 17.7354 14.2354 17.5771C13.251 17.167 12.5156 16.666 12.0293 16.0742C11.5488 15.4824 11.3086 14.7676 11.3086 13.9297C11.3086 13.2734 11.4404 12.7109 11.7041 12.2422C11.9678 11.7676 12.3252 11.3779 12.7764 11.0732C13.2334 10.7686 13.7607 10.5459 14.3584 10.4053C14.9561 10.2588 15.5889 10.1855 16.2568 10.1855C16.9131 10.1855 17.4932 10.2266 17.9971 10.3086C18.5068 10.3848 18.9756 10.5049 19.4033 10.6689V13.2969C19.1924 13.1504 18.9609 13.0215 18.709 12.9102C18.4629 12.7988 18.208 12.708 17.9443 12.6377C17.6807 12.5615 17.417 12.5059 17.1533 12.4707C16.8955 12.4355 16.6494 12.418 16.415 12.418C16.0928 12.418 15.7998 12.4502 15.5361 12.5146C15.2725 12.5732 15.0498 12.6582 14.8682 12.7695C14.6865 12.8809 14.5459 13.0156 14.4463 13.1738C14.3467 13.3262 14.2969 13.499 14.2969 13.6924C14.2969 13.9033 14.3525 14.0938 14.4639 14.2637C14.5752 14.4277 14.7334 14.5859 14.9385 14.7383C15.1436 14.8848 15.3926 15.0312 15.6855 15.1777C15.9785 15.3184 16.3096 15.4648 16.6787 15.6172C17.1826 15.8281 17.6338 16.0537 18.0322 16.2939C18.4365 16.5283 18.7822 16.7949 19.0693 17.0938C19.3564 17.3926 19.5762 17.7354 19.7285 18.1221C19.8809 18.5029 19.957 18.9482 19.957 19.458C19.957 20.1611 19.8223 20.7529 19.5527 21.2334C19.2891 21.708 18.9287 22.0947 18.4717 22.3936C18.0146 22.6865 17.4814 22.8975 16.8721 23.0264C16.2686 23.1553 15.6299 23.2197 14.9561 23.2197C14.2646 23.2197 13.6055 23.1611 12.9785 23.0439C12.3574 22.9268 11.8184 22.751 11.3613 22.5166Z" fill="#F9FAFB"/>
</svg>
