<svg width="20" height="20" viewBox="0 0 20 20" fill="none" xmlns="http://www.w3.org/2000/svg">
<path d="M10.4883 2.1524C10.1758 1.83981 9.75195 1.66416 9.30996 1.66406H3.33329C2.89127 1.66406 2.46734 1.83966 2.15478 2.15222C1.84222 2.46478 1.66663 2.8887 1.66663 3.33073V9.3074C1.66672 9.74939 1.84238 10.1732 2.15496 10.4857L9.40829 17.7391C9.78705 18.1154 10.2993 18.3267 10.8333 18.3267C11.3673 18.3267 11.8795 18.1154 12.2583 17.7391L17.7416 12.2557C18.118 11.877 18.3292 11.3647 18.3292 10.8307C18.3292 10.2968 18.118 9.78449 17.7416 9.40573L10.4883 2.1524Z" stroke="#030711" stroke-width="1.66667" stroke-linecap="round" stroke-linejoin="round"/>
<path d="M6.25004 6.66927C6.48016 6.66927 6.66671 6.48272 6.66671 6.2526C6.66671 6.02249 6.48016 5.83594 6.25004 5.83594C6.01992 5.83594 5.83337 6.02249 5.83337 6.2526C5.83337 6.48272 6.01992 6.66927 6.25004 6.66927Z" fill="#030711" stroke="#030711" stroke-width="1.66667" stroke-linecap="round" stroke-linejoin="round"/>
</svg>
