<svg width="32" height="32" viewBox="0 0 32 32" fill="none" xmlns="http://www.w3.org/2000/svg">
<path d="M18.667 24.0026V8.0026C18.667 7.29536 18.386 6.61708 17.8859 6.11699C17.3858 5.61689 16.7076 5.33594 16.0003 5.33594H5.33366C4.62641 5.33594 3.94814 5.61689 3.44804 6.11699C2.94794 6.61708 2.66699 7.29536 2.66699 8.0026V22.6693C2.66699 23.0229 2.80747 23.362 3.05752 23.6121C3.30756 23.8621 3.6467 24.0026 4.00033 24.0026H6.66699" stroke="#030711" stroke-width="2.66667" stroke-linecap="round" stroke-linejoin="round"/>
<path d="M20 24H12" stroke="#030711" stroke-width="2.66667" stroke-linecap="round" stroke-linejoin="round"/>
<path d="M25.3337 23.9974H28.0003C28.3539 23.9974 28.6931 23.8569 28.9431 23.6069C29.1932 23.3568 29.3337 23.0177 29.3337 22.6641V17.7974C29.3331 17.4948 29.2297 17.2014 29.0403 16.9654L24.4003 11.1654C24.2756 11.0092 24.1174 10.8831 23.9374 10.7963C23.7574 10.7095 23.5602 10.6643 23.3603 10.6641H18.667" stroke="#030711" stroke-width="2.66667" stroke-linecap="round" stroke-linejoin="round"/>
<path d="M22.6667 26.6693C24.1394 26.6693 25.3333 25.4754 25.3333 24.0026C25.3333 22.5298 24.1394 21.3359 22.6667 21.3359C21.1939 21.3359 20 22.5298 20 24.0026C20 25.4754 21.1939 26.6693 22.6667 26.6693Z" stroke="#030711" stroke-width="2.66667" stroke-linecap="round" stroke-linejoin="round"/>
<path d="M9.33366 26.6693C10.8064 26.6693 12.0003 25.4754 12.0003 24.0026C12.0003 22.5298 10.8064 21.3359 9.33366 21.3359C7.8609 21.3359 6.66699 22.5298 6.66699 24.0026C6.66699 25.4754 7.8609 26.6693 9.33366 26.6693Z" stroke="#030711" stroke-width="2.66667" stroke-linecap="round" stroke-linejoin="round"/>
</svg>
