<svg width="16" height="16" viewBox="0 0 16 16" fill="none" xmlns="http://www.w3.org/2000/svg">
<path d="M4 1.33594L2 4.0026V13.3359C2 13.6896 2.14048 14.0287 2.39052 14.2787C2.64057 14.5288 2.97971 14.6693 3.33333 14.6693H12.6667C13.0203 14.6693 13.3594 14.5288 13.6095 14.2787C13.8595 14.0287 14 13.6896 14 13.3359V4.0026L12 1.33594H4Z" stroke="#030711" stroke-width="1.33333" stroke-linecap="round" stroke-linejoin="round"/>
<path d="M2 4H14" stroke="#030711" stroke-width="1.33333" stroke-linecap="round" stroke-linejoin="round"/>
<path d="M10.6663 6.66406C10.6663 7.37131 10.3854 8.04958 9.88529 8.54968C9.3852 9.04978 8.70692 9.33073 7.99967 9.33073C7.29243 9.33073 6.61415 9.04978 6.11406 8.54968C5.61396 8.04958 5.33301 7.37131 5.33301 6.66406" stroke="#030711" stroke-width="1.33333" stroke-linecap="round" stroke-linejoin="round"/>
</svg>
