<svg width="32" height="32" viewBox="0 0 32 32" fill="none" xmlns="http://www.w3.org/2000/svg">
<path d="M15.3667 3.05725C15.4251 2.9392 15.5154 2.83983 15.6273 2.77035C15.7392 2.70088 15.8683 2.66406 16 2.66406C16.1318 2.66406 16.2609 2.70088 16.3728 2.77035C16.4847 2.83983 16.5749 2.9392 16.6334 3.05725L19.7134 9.29592C19.9163 9.70654 20.2158 10.0618 20.5862 10.3312C20.9566 10.6006 21.3869 10.7761 21.84 10.8426L28.728 11.8506C28.8586 11.8695 28.9812 11.9246 29.082 12.0095C29.1829 12.0945 29.2579 12.206 29.2987 12.3314C29.3395 12.4568 29.3444 12.5911 29.3128 12.7192C29.2812 12.8472 29.2145 12.9639 29.12 13.0559L24.1387 17.9066C23.8102 18.2267 23.5644 18.6219 23.4225 19.0581C23.2806 19.4943 23.2468 19.9584 23.324 20.4106L24.5 27.2639C24.5231 27.3944 24.509 27.5287 24.4594 27.6515C24.4098 27.7743 24.3266 27.8807 24.2194 27.9586C24.1123 28.0364 23.9853 28.0826 23.8532 28.0918C23.721 28.101 23.589 28.0728 23.472 28.0106L17.3147 24.7733C16.909 24.5602 16.4576 24.4489 15.9994 24.4489C15.5411 24.4489 15.0897 24.5602 14.684 24.7733L8.52804 28.0106C8.41115 28.0725 8.27924 28.1003 8.14731 28.0909C8.01538 28.0816 7.88873 28.0353 7.78177 27.9575C7.6748 27.8798 7.59182 27.7735 7.54225 27.6509C7.49268 27.5283 7.47852 27.3942 7.50137 27.2639L8.67604 20.4119C8.75363 19.9596 8.72002 19.4951 8.57809 19.0587C8.43616 18.6222 8.19018 18.2268 7.86137 17.9066L2.88004 13.0573C2.78483 12.9653 2.71736 12.8484 2.68532 12.72C2.65328 12.5916 2.65796 12.4567 2.69881 12.3308C2.73967 12.2049 2.81506 12.093 2.91641 12.0079C3.01775 11.9228 3.14098 11.8678 3.27204 11.8493L10.1587 10.8426C10.6124 10.7766 11.0432 10.6013 11.4142 10.3319C11.7851 10.0625 12.085 9.70695 12.288 9.29592L15.3667 3.05725Z" stroke="#EAB308" stroke-width="2.66667" stroke-linecap="round" stroke-linejoin="round"/>
</svg>
